<svg xmlns="http://www.w3.org/2000/svg" viewBox="0 0 1024 1024"><defs><style>.cls-1{fill:#47b5ff;}.cls-2{fill:#41d8b0;}</style></defs><g id="Layer_1" data-name="Layer 1"><path d="M406.29,589.24l.27-.27.05,0A.85.85,0,0,0,406.29,589.24Z"/></g><g id="Layer_3" data-name="Layer 3"><path class="cls-1" d="M527.24,328.17,696.28,500l23.93-.39.79-96.75a13.27,13.27,0,0,0-3.78-9.38L583.64,257.7a13.2,13.2,0,0,0-18.7-.16l-44.29,43.59.13,23A16.59,16.59,0,0,1,527.24,328.17Zm-201,177.89a16,16,0,0,1,4.23-7.31l172.07-169.3-.12-23.66L405.11,305a13.18,13.18,0,0,0-9.38,3.78L256.18,446.07a7.87,7.87,0,0,0-.14,11.15l48.4,49.19ZM463.27,766.23l41.15-40.49-.2-27.68a14.15,14.15,0,0,1-3.2-2.51L332.45,524.23l-24.4.43-.78,96.23a13.26,13.26,0,0,0,3.83,9.43L444.68,766.08A13.16,13.16,0,0,0,463.27,766.23Zm159.88-47.5a13.3,13.3,0,0,0,9.44-3.83L768.35,581.32a13.16,13.16,0,0,0,.15-18.59l-44.21-44.94-22.34.4a15.92,15.92,0,0,1-4.13,6.78L524.26,695.74a21.57,21.57,0,0,1-1.7,1.47l0,20.7Z"/><path class="cls-2" d="M382.15,530.17a14.26,14.26,0,0,1-.68-6.15l1.77-29.49A18.53,18.53,0,0,1,389,482.06l92.06-89c8.92-5.84,17.26-10.1,23.17-11.51l.3,0L527.9,380a10,10,0,0,1,2.12-.08,5.34,5.34,0,0,1,2.15.22,9.17,9.17,0,0,1,3.28.85,19.66,19.66,0,0,1,7,4.54l96.72,99.87a19.25,19.25,0,0,1,5.42,14.74l-.36,7.78-1.48,22.47A19.19,19.19,0,0,1,637,541.63l-92.06,89-5.9,5.66a18.61,18.61,0,0,1-12.16,5.43l-5.26.42-.15,0-23.34,1.65a34.94,34.94,0,0,1-4.27-.13,14.47,14.47,0,0,1-3.3-1,19.66,19.66,0,0,1-7-4.54L386.84,538.3a20.87,20.87,0,0,1-2.83-3.63A18,18,0,0,1,382.15,530.17Z"/></g></svg>